<mxfile host="app.diagrams.net" modified="2024-03-07T22:48:01.659Z" agent="Mozilla/5.0 (Windows NT 10.0; Win64; x64) AppleWebKit/537.36 (KHTML, like Gecko) Chrome/122.0.0.0 Safari/537.36" etag="6vIGHVAkucz9Wxe-Kjc2" version="24.0.2" type="github">
  <diagram name="Página-1" id="Q2La8iDQaND9d7fJ8AMt">
    <mxGraphModel dx="1035" dy="551" grid="1" gridSize="10" guides="1" tooltips="1" connect="1" arrows="1" fold="1" page="1" pageScale="1" pageWidth="827" pageHeight="1169" math="0" shadow="0">
      <root>
        <mxCell id="0" />
        <mxCell id="1" parent="0" />
        <mxCell id="TrWD1ESTp-jLkhhgSA_e-19" style="edgeStyle=orthogonalEdgeStyle;rounded=0;orthogonalLoop=1;jettySize=auto;html=1;exitX=1;exitY=0.5;exitDx=0;exitDy=0;entryX=0.5;entryY=0;entryDx=0;entryDy=0;endArrow=none;endFill=0;" edge="1" parent="1" source="TrWD1ESTp-jLkhhgSA_e-1" target="TrWD1ESTp-jLkhhgSA_e-18">
          <mxGeometry relative="1" as="geometry" />
        </mxCell>
        <mxCell id="TrWD1ESTp-jLkhhgSA_e-24" value="N" style="edgeLabel;html=1;align=center;verticalAlign=middle;resizable=0;points=[];" vertex="1" connectable="0" parent="TrWD1ESTp-jLkhhgSA_e-19">
          <mxGeometry x="0.4832" relative="1" as="geometry">
            <mxPoint as="offset" />
          </mxGeometry>
        </mxCell>
        <mxCell id="TrWD1ESTp-jLkhhgSA_e-1" value="Show" style="rounded=0;whiteSpace=wrap;html=1;" vertex="1" parent="1">
          <mxGeometry x="160" y="320" width="120" height="60" as="geometry" />
        </mxCell>
        <mxCell id="TrWD1ESTp-jLkhhgSA_e-4" value="data" style="ellipse;whiteSpace=wrap;html=1;" vertex="1" parent="1">
          <mxGeometry x="170" y="380" width="100" height="50" as="geometry" />
        </mxCell>
        <mxCell id="TrWD1ESTp-jLkhhgSA_e-6" value="horário" style="ellipse;whiteSpace=wrap;html=1;" vertex="1" parent="1">
          <mxGeometry x="170" y="430" width="100" height="50" as="geometry" />
        </mxCell>
        <mxCell id="TrWD1ESTp-jLkhhgSA_e-7" value="nomeevento" style="ellipse;whiteSpace=wrap;html=1;" vertex="1" parent="1">
          <mxGeometry x="170" y="480" width="100" height="50" as="geometry" />
        </mxCell>
        <mxCell id="TrWD1ESTp-jLkhhgSA_e-8" value="valoringresso" style="ellipse;whiteSpace=wrap;html=1;" vertex="1" parent="1">
          <mxGeometry x="170" y="530" width="100" height="50" as="geometry" />
        </mxCell>
        <mxCell id="TrWD1ESTp-jLkhhgSA_e-9" value="Ingresso" style="rounded=0;whiteSpace=wrap;html=1;" vertex="1" parent="1">
          <mxGeometry x="520" y="320" width="120" height="60" as="geometry" />
        </mxCell>
        <mxCell id="TrWD1ESTp-jLkhhgSA_e-10" value="&lt;u&gt;numero&lt;/u&gt;" style="ellipse;whiteSpace=wrap;html=1;" vertex="1" parent="1">
          <mxGeometry x="530" y="380" width="100" height="50" as="geometry" />
        </mxCell>
        <mxCell id="TrWD1ESTp-jLkhhgSA_e-11" value="vender" style="rhombus;whiteSpace=wrap;html=1;" vertex="1" parent="1">
          <mxGeometry x="440" y="460" width="80" height="80" as="geometry" />
        </mxCell>
        <mxCell id="TrWD1ESTp-jLkhhgSA_e-12" value="" style="endArrow=classic;html=1;rounded=0;exitX=0.5;exitY=0;exitDx=0;exitDy=0;entryX=0;entryY=0.5;entryDx=0;entryDy=0;" edge="1" parent="1" source="TrWD1ESTp-jLkhhgSA_e-11" target="TrWD1ESTp-jLkhhgSA_e-9">
          <mxGeometry width="50" height="50" relative="1" as="geometry">
            <mxPoint x="390" y="470" as="sourcePoint" />
            <mxPoint x="480" y="300" as="targetPoint" />
            <Array as="points">
              <mxPoint x="480" y="350" />
            </Array>
          </mxGeometry>
        </mxCell>
        <mxCell id="TrWD1ESTp-jLkhhgSA_e-13" value="vendedores" style="rounded=0;whiteSpace=wrap;html=1;" vertex="1" parent="1">
          <mxGeometry x="440" y="630" width="120" height="60" as="geometry" />
        </mxCell>
        <mxCell id="TrWD1ESTp-jLkhhgSA_e-14" value="" style="endArrow=classic;html=1;rounded=0;exitX=0.325;exitY=0.007;exitDx=0;exitDy=0;entryX=0.5;entryY=1;entryDx=0;entryDy=0;exitPerimeter=0;" edge="1" parent="1" source="TrWD1ESTp-jLkhhgSA_e-13" target="TrWD1ESTp-jLkhhgSA_e-11">
          <mxGeometry width="50" height="50" relative="1" as="geometry">
            <mxPoint x="600" y="600" as="sourcePoint" />
            <mxPoint x="480" y="550" as="targetPoint" />
          </mxGeometry>
        </mxCell>
        <mxCell id="TrWD1ESTp-jLkhhgSA_e-16" value="&lt;u&gt;idvendedor&lt;/u&gt;" style="ellipse;whiteSpace=wrap;html=1;" vertex="1" parent="1">
          <mxGeometry x="430" y="690" width="100" height="50" as="geometry" />
        </mxCell>
        <mxCell id="TrWD1ESTp-jLkhhgSA_e-17" value="nome" style="ellipse;whiteSpace=wrap;html=1;" vertex="1" parent="1">
          <mxGeometry x="430" y="740" width="100" height="50" as="geometry" />
        </mxCell>
        <mxCell id="TrWD1ESTp-jLkhhgSA_e-18" value="faz" style="rhombus;whiteSpace=wrap;html=1;" vertex="1" parent="1">
          <mxGeometry x="334" y="460" width="80" height="80" as="geometry" />
        </mxCell>
        <mxCell id="TrWD1ESTp-jLkhhgSA_e-28" style="edgeStyle=orthogonalEdgeStyle;rounded=0;orthogonalLoop=1;jettySize=auto;html=1;exitX=0.5;exitY=1;exitDx=0;exitDy=0;entryX=1;entryY=0.5;entryDx=0;entryDy=0;endArrow=none;endFill=0;" edge="1" parent="1" source="TrWD1ESTp-jLkhhgSA_e-20" target="TrWD1ESTp-jLkhhgSA_e-27">
          <mxGeometry relative="1" as="geometry" />
        </mxCell>
        <mxCell id="TrWD1ESTp-jLkhhgSA_e-29" value="N" style="edgeLabel;html=1;align=center;verticalAlign=middle;resizable=0;points=[];" vertex="1" connectable="0" parent="TrWD1ESTp-jLkhhgSA_e-28">
          <mxGeometry x="-0.5797" relative="1" as="geometry">
            <mxPoint as="offset" />
          </mxGeometry>
        </mxCell>
        <mxCell id="TrWD1ESTp-jLkhhgSA_e-20" value="vendedores" style="rounded=0;whiteSpace=wrap;html=1;" vertex="1" parent="1">
          <mxGeometry x="294" y="630" width="120" height="60" as="geometry" />
        </mxCell>
        <mxCell id="TrWD1ESTp-jLkhhgSA_e-21" value="" style="endArrow=classic;html=1;rounded=0;exitX=0.325;exitY=-0.033;exitDx=0;exitDy=0;entryX=0.5;entryY=1;entryDx=0;entryDy=0;exitPerimeter=0;" edge="1" parent="1" target="TrWD1ESTp-jLkhhgSA_e-18">
          <mxGeometry width="50" height="50" relative="1" as="geometry">
            <mxPoint x="373.5" y="629" as="sourcePoint" />
            <mxPoint x="374.5" y="541" as="targetPoint" />
          </mxGeometry>
        </mxCell>
        <mxCell id="TrWD1ESTp-jLkhhgSA_e-25" value="N" style="edgeLabel;html=1;align=center;verticalAlign=middle;resizable=0;points=[];" vertex="1" connectable="0" parent="TrWD1ESTp-jLkhhgSA_e-21">
          <mxGeometry x="-0.1524" relative="1" as="geometry">
            <mxPoint as="offset" />
          </mxGeometry>
        </mxCell>
        <mxCell id="TrWD1ESTp-jLkhhgSA_e-26" value="&lt;u&gt;idshow&lt;/u&gt;" style="ellipse;whiteSpace=wrap;html=1;" vertex="1" parent="1">
          <mxGeometry x="170" y="580" width="100" height="50" as="geometry" />
        </mxCell>
        <mxCell id="TrWD1ESTp-jLkhhgSA_e-27" value="artista" style="rounded=0;whiteSpace=wrap;html=1;" vertex="1" parent="1">
          <mxGeometry x="160" y="710" width="120" height="60" as="geometry" />
        </mxCell>
        <mxCell id="TrWD1ESTp-jLkhhgSA_e-30" value="&lt;u&gt;idartista&lt;/u&gt;" style="ellipse;whiteSpace=wrap;html=1;" vertex="1" parent="1">
          <mxGeometry x="170" y="770" width="100" height="50" as="geometry" />
        </mxCell>
      </root>
    </mxGraphModel>
  </diagram>
</mxfile>
